Coordinates
version=1
nRows=12
nColumns=33
inDegrees=yes

Units are S.I. units (second, meters, Newtons, ...)
Angles are in degrees.

endheader
time	ground_thorax_rot_x	ground_thorax_rot_y	ground_thorax_rot_z	ground_thorax_tx	ground_thorax_ty	ground_thorax_tz	clav_prot_r	clav_elev_r	scapula_abduction_r	scapula_elevation_r	scapula_upward_rot_r	scapula_winging_r	shoulder_elv_r	plane_of_elev_r	axial_rot_r	elbow_flexion_r	pro_sup_r	wrist_flex_r	wrist_dev_r	clav_prot_l	clav_elev_l	scapula_abduction_l	scapula_elevation_l	scapula_upward_rot_l	scapula_winging_l	shoulder_elv_l	plane_of_elev_l	axial_rot_l	elbow_flexion_l	pro_sup_l	wrist_flex_l	wrist_dev_l
      6.71000000	     38.93414457	     10.16971214	     13.77987920	   -172.40553579	    816.62736909	     13.33013032	     17.09986964	     39.74002301	     42.56177555	     45.00000000	    -39.92034526	   3514.27078211	  -3529.00670656	     34.05760542	     27.09444857	   1453.09642231	   -345.80054590	     18.53967442	     11.18435955	      9.14144119	    -45.00000000	    -40.50919759	     45.00000000	    -29.38485359	  -2425.09379776	   -648.31160616	     22.62098402	    -25.84089192	   1809.50156363	     15.55519938	     11.13123896	    -20.22992183
      6.72000000	     38.91344271	     10.07278170	     13.69502186	   -167.01099000	    814.36246655	     13.47764736	     17.26611456	     39.91262684	     42.80702831	     45.00000000	    -39.32012149	   3514.57466647	  -3529.34427113	     34.00109522	     27.48362440	   1452.93941087	   -347.13013035	     18.29337929	     11.47661179	      9.05677469	    -45.00000000	    -40.80189139	     45.00000000	    -28.42850440	  -2425.48789453	   -648.79291342	     22.86065178	    -24.31378086	   1809.07927695	     17.09607930	     11.49336105	    -20.21449837
      6.73000000	     38.86984705	     10.16653996	     13.76705061	   -161.60224807	    812.01680759	     13.58087655	     17.29788735	     40.12252749	     42.97319707	     45.00000000	    -38.86784811	   3514.74158517	  -3529.70740878	     34.07916974	     28.07283270	   1452.74800889	   -348.07195394	     18.05852170	     11.79487298	      9.04753697	    -45.00000000	    -41.17442986	     45.00000000	    -27.77859495	  -2425.90965232	   -649.25879804	     23.06266040	    -22.65887403	   1808.69825915	     18.73888732	     11.70580158	    -20.22119637
      6.74000000	     38.86694655	      9.94290323	     13.53300266	   -156.20922102	    809.62439658	     13.64163695	     17.54455707	     40.23592061	     43.26519123	     45.00000000	    -38.30055666	   3515.19150214	  -3529.96562290	     33.91546169	     28.19295465	   1452.60014726	   -349.01778975	     17.82568126	     12.04946156	      8.93928272	    -45.00000000	    -41.42430809	     45.00000000	    -26.69129688	  -2426.29809520	   -649.79233071	     23.41536713	    -20.85694380	   1808.18846694	     20.82664050	     12.07527939	    -20.29268336
      6.75000000	     38.84380015	     10.04886380	     13.69855025	   -150.88986374	    807.22551050	     13.65259027	     17.46621286	     40.44494782	     43.47291563	     45.00000000	    -37.90085792	   3515.33122485	  -3530.35059719	     34.03800184	     28.72913661	   1452.35855389	   -349.42941804	     17.60521457	     12.35091159	      8.98273014	    -45.00000000	    -41.73751348	     45.00000000	    -26.42611102	  -2426.80097965	   -650.19975380	     23.54824721	    -19.44357956	   1807.74348237	     22.55486345	     12.10483863	    -20.29146300
      6.76000000	     38.81928888	      9.86249285	     13.41381875	   -145.66911492	    804.84734378	     13.61018182	     17.76510313	     40.62674419	     43.72354338	     45.00000000	    -37.36254774	   3515.69442775	  -3530.71219172	     33.92246218	     28.86285542	   1452.24019136	   -349.70314384	     17.42716538	     12.54752337	      8.87833934	    -45.00000000	    -42.11618794	     45.00000000	    -25.30268019	  -2427.12619818	   -650.66629634	     23.78067007	    -18.02169115	   1807.40239417	     24.34800655	     12.32820449	    -20.35150147
      6.77000000	     38.78820409	      9.66190872	     13.20418362	   -140.56582642	    802.51358955	     13.50911372	     17.91689496	     40.70544614	     43.92485962	     45.00000000	    -36.87269159	   3516.11458250	  -3530.99631199	     33.90329463	     28.83028465	   1452.08146736	   -349.68331367	     17.25962721	     12.76076519	      8.84611706	    -45.00000000	    -42.42867343	     45.00000000	    -24.44152638	  -2427.44338414	   -651.07330180	     23.98160967	    -17.03208543	   1807.08903475	     25.99349181	     12.48729132	    -20.38302959
      6.78000000	     38.75351344	      9.73929046	     13.26985372	   -135.57159544	    800.23987453	     13.35802209	     18.09732556	     40.97430380	     44.20294179	     45.00000000	    -36.65830034	   3516.27367440	  -3531.41585786	     33.93133143	     29.07306506	   1451.87586702	   -349.26141440	     17.13037877	     12.93183958	      8.84690196	    -45.00000000	    -42.74679310	     45.00000000	    -24.05243604	  -2427.89560631	   -651.35793316	     23.99608049	    -16.18788525	   1806.79491301	     27.21589915	     12.44246372	    -20.33981768
      6.79000000	     38.77879158	      9.45705418	     12.95616233	   -130.72344768	    798.04863157	     13.16318876	     18.27282253	     41.08944584	     44.36739212	     45.00000000	    -36.08404857	   3516.66647363	  -3531.69821245	     33.95918041	     29.01825991	   1451.65381489	   -348.64515269	     17.01270117	     13.10664932	      8.82595702	    -45.00000000	    -43.18913088	     45.00000000	    -23.02331918	  -2428.19035734	   -651.87558993	     24.09005192	    -15.65070883	   1806.44067495	     28.35727382	     12.57717741	    -20.29442627
      6.80000000	     38.85684790	      8.84793348	     12.10326229	   -126.04695693	    795.95520991	     12.93661941	     17.77019500	     41.18984930	     44.61546103	     45.00000000	    -34.95194697	   3516.94344934	  -3532.14647405	     33.88117548	     27.80766868	   1451.42589268	   -347.61951757	     16.90975916	     13.53553045	      8.80168888	    -45.00000000	    -44.23028331	     45.00000000	    -20.85157416	  -2428.20355672	   -652.47669657	     24.11615113	    -15.19433574	   1806.02483442	     29.83454022	     12.76864291	    -20.29520073
      6.81000000	     38.77246913	      9.01237714	     12.44644940	   -121.57207329	    793.97786635	     12.69206313	     18.58504791	     41.43325030	     44.87330059	     45.00000000	    -35.35027374	   3517.27426365	  -3532.32069447	     33.99544437	     28.14125653	   1451.28346766	   -346.43989566	     16.90975398	     13.45340664	      8.80538508	    -45.00000000	    -44.23739700	     45.00000000	    -21.07899834	  -2428.72004079	   -652.57863877	     24.07754404	    -14.83702117	   1805.81183021	     30.54461496	     12.62663980	    -20.20024260
      6.82000000	     38.78634279	      8.66838886	     11.97319212	   -117.32457720	    792.12662430	     12.44466651	     18.66522929	     41.56525663	     45.00000000	     45.00000000	    -34.61796096	   3517.60599983	  -3532.64507025	     33.94414810	     27.62477953	   1451.12768780	   -345.21305429	     16.88612245	     13.59020238	      8.80625599	    -45.00000000	    -45.00000000	     45.00000000	    -19.68821152	  -2428.87936381	   -653.07055106	     24.09912282	    -14.40896159	   1805.28626347	     31.38335827	     12.77253258	    -20.08714730
